<svg xmlns="http://www.w3.org/2000/svg" xmlns:xlink="http://www.w3.org/1999/xlink" width="500" zoomAndPan="magnify" viewBox="0 0 375 374.999991" height="500" preserveAspectRatio="xMidYMid meet" version="1.0"><defs><g/><clipPath id="5bcb3411e1"><path d="M 187.957031 37.5 L 348.457031 37.5 L 348.457031 198 L 187.957031 198 Z M 187.957031 37.5 " clip-rule="nonzero"/></clipPath></defs><g clip-path="url(#5bcb3411e1)"><path fill="#462009" d="M 268.257812 37.472656 C 312.59375 37.472656 348.53125 73.414062 348.53125 117.746094 C 348.53125 151.582031 327.597656 180.523438 297.96875 192.339844 L 296.796875 167.042969 L 296.796875 166.996094 C 296.863281 161.992188 298.976562 158.050781 303.664062 156.070312 L 304.265625 155.828125 L 304.296875 155.816406 L 304.394531 155.777344 C 307.84375 154.382812 310.65625 152.5 312.566406 149.242188 C 314.960938 145.183594 315.421875 139.777344 315.421875 135.175781 C 315.421875 126.332031 312.816406 115.886719 308.320312 108.238281 C 305.128906 102.804688 300.09375 97.304688 293.292969 97.304688 C 286.496094 97.304688 281.457031 102.804688 278.265625 108.238281 C 273.773438 115.886719 271.164062 126.332031 271.164062 135.175781 C 271.164062 139.785156 271.628906 145.191406 274.019531 149.242188 C 275.953125 152.523438 278.796875 154.410156 282.265625 155.804688 C 282.363281 155.84375 282.457031 155.886719 282.554688 155.925781 L 282.582031 155.925781 L 282.882812 156.054688 C 287.585938 158.03125 289.726562 161.929688 289.789062 166.996094 L 289.789062 167.042969 L 288.472656 195.457031 C 282.011719 197.132812 275.238281 198.023438 268.257812 198.023438 C 261.027344 198.023438 254.027344 197.0625 247.359375 195.273438 L 246.128906 168.671875 L 246.128906 168.613281 C 246.195312 163.488281 248.382812 159.445312 253.179688 157.414062 L 253.792969 157.171875 L 253.816406 157.164062 L 253.835938 157.15625 L 253.90625 157.128906 C 257.292969 155.757812 260.054688 153.914062 261.9375 150.714844 C 264.296875 146.710938 264.75 141.34375 264.75 136.800781 C 264.75 136.359375 264.730469 135.917969 264.707031 135.476562 C 264.6875 135.226562 264.667969 134.972656 264.636719 134.726562 L 264.59375 134.355469 L 264.664062 134.101562 L 261.742188 100.148438 L 258.691406 100.15625 L 258.425781 136.039062 L 253.34375 136.542969 L 250.320312 95.984375 L 247.011719 96.183594 L 246.355469 137.042969 L 244.554688 137.117188 C 244.179688 137.132812 243.800781 137.140625 243.429688 137.140625 C 243.054688 137.140625 242.671875 137.132812 242.296875 137.117188 L 240.507812 137.042969 L 239.589844 96.183594 L 236.277344 95.988281 L 233.519531 136.546875 L 228.429688 136.042969 L 228.171875 100.15625 L 225.101562 100.15625 L 221.15625 134.117188 L 221.222656 134.359375 L 221.179688 134.71875 C 221.152344 134.972656 221.132812 135.226562 221.113281 135.476562 C 221.089844 135.917969 221.070312 136.359375 221.070312 136.800781 C 221.070312 141.34375 221.523438 146.710938 223.882812 150.714844 C 225.78125 153.941406 228.574219 155.785156 231.984375 157.15625 C 232.0625 157.1875 232.144531 157.21875 232.21875 157.25 L 232.246094 157.25 L 232.601562 157.402344 C 237.410156 159.429688 239.621094 163.425781 239.691406 168.613281 L 239.691406 168.671875 L 238.59375 192.375 C 208.929688 180.585938 187.964844 151.617188 187.964844 117.753906 C 187.984375 73.410156 223.921875 37.472656 268.257812 37.472656 " fill-opacity="1" fill-rule="evenodd"/></g><g fill="#462009" fill-opacity="0.1882"><g transform="translate(10.222453, 234.533288)"><g><path d="M 139.296875 22.515625 C 139.503906 22.921875 139.628906 23.351562 139.671875 23.8125 C 139.765625 24.457031 139.488281 24.878906 138.84375 25.078125 C 136.875 25.796875 135.390625 25.269531 134.390625 23.5 C 133.679688 22.25 133.023438 20.945312 132.421875 19.59375 C 131.054688 16.363281 129.832031 13.070312 128.75 9.71875 C 127.675781 6.375 126.679688 3.019531 125.765625 -0.34375 C 124.972656 -3.3125 124.195312 -6.285156 123.4375 -9.265625 C 122.9375 -11.367188 122.410156 -13.484375 121.859375 -15.609375 C 121.609375 -16.660156 121.304688 -17.3125 120.953125 -17.5625 C 120.597656 -17.820312 119.894531 -17.925781 118.84375 -17.875 C 115.40625 -17.675781 111.984375 -17.472656 108.578125 -17.265625 C 104.984375 -17.054688 101.40625 -16.882812 97.84375 -16.75 C 96.945312 -16.675781 96.28125 -16.414062 95.84375 -15.96875 C 95.414062 -15.53125 95.097656 -14.910156 94.890625 -14.109375 C 92.691406 -5.796875 90.101562 2.414062 87.125 10.53125 C 85.113281 15.863281 82.898438 21.109375 80.484375 26.265625 C 78.078125 31.429688 75.304688 36.40625 72.171875 41.1875 C 69.359375 45.457031 66.015625 49.273438 62.140625 52.640625 C 58.304688 56.023438 53.953125 58.289062 49.078125 59.4375 C 42.367188 60.988281 35.992188 60.164062 29.953125 56.96875 C 26.335938 54.957031 23.148438 52.441406 20.390625 49.421875 C 11.117188 39.347656 4.65625 27.710938 1 14.515625 C 0.332031 12.109375 0 9.648438 0 7.140625 L 0 6.96875 C 0 6.46875 0.0195312 5.941406 0.0625 5.390625 C 0.4375 -0.441406 3.1875 -4.800781 8.3125 -7.6875 C 10.269531 -8.738281 12.289062 -9.578125 14.375 -10.203125 C 16.457031 -10.835938 18.585938 -11.300781 20.765625 -11.59375 C 27.265625 -12.601562 33.785156 -13.484375 40.328125 -14.234375 C 50.734375 -15.398438 61.175781 -16.488281 71.65625 -17.5 C 75.3125 -17.84375 78.957031 -18.140625 82.59375 -18.390625 C 84.363281 -18.484375 86.101562 -18.609375 87.8125 -18.765625 C 89.007812 -18.816406 89.8125 -18.976562 90.21875 -19.25 C 90.632812 -19.519531 90.96875 -20.21875 91.21875 -21.34375 C 91.851562 -23.695312 92.484375 -26.085938 93.109375 -28.515625 C 97.316406 -47.023438 100.65625 -65.691406 103.125 -84.515625 C 104.789062 -96.253906 106.101562 -108.015625 107.0625 -119.796875 C 107.320312 -123.503906 107.492188 -127.222656 107.578125 -130.953125 C 107.628906 -132.617188 107.710938 -134.28125 107.828125 -135.9375 C 107.828125 -136.1875 107.828125 -136.4375 107.828125 -136.6875 C 107.828125 -137.1875 107.847656 -137.664062 107.890625 -138.125 C 107.941406 -139.082031 108.175781 -139.75 108.59375 -140.125 C 109.019531 -140.507812 109.710938 -140.703125 110.671875 -140.703125 C 111.628906 -140.742188 112.320312 -140.578125 112.75 -140.203125 C 113.175781 -139.828125 113.390625 -139.132812 113.390625 -138.125 C 113.390625 -134.757812 113.390625 -131.296875 113.390625 -127.734375 C 113.390625 -126.222656 113.390625 -124.675781 113.390625 -123.09375 C 113.585938 -113.488281 114.125 -103.628906 115 -93.515625 C 115.9375 -82.191406 117.191406 -70.890625 118.765625 -59.609375 C 120.367188 -47.890625 122.472656 -36.269531 125.078125 -24.75 C 125.191406 -24.195312 125.320312 -23.664062 125.46875 -23.15625 C 125.582031 -22.84375 125.679688 -22.515625 125.765625 -22.171875 C 126.066406 -21.210938 126.722656 -20.789062 127.734375 -20.90625 C 129.898438 -20.945312 132.09375 -20.988281 134.3125 -21.03125 C 135.363281 -21.125 136.347656 -20.921875 137.265625 -20.421875 C 137.609375 -20.171875 137.78125 -19.789062 137.78125 -19.28125 C 137.738281 -19.03125 137.625 -18.84375 137.4375 -18.71875 C 137.257812 -18.59375 137.078125 -18.53125 136.890625 -18.53125 C 135.816406 -18.488281 134.726562 -18.46875 133.625 -18.46875 C 133.125 -18.414062 132.625 -18.390625 132.125 -18.390625 C 131.820312 -18.390625 131.546875 -18.390625 131.296875 -18.390625 C 130.378906 -18.390625 129.5 -18.367188 128.65625 -18.328125 C 127.351562 -18.210938 126.847656 -17.503906 127.140625 -16.203125 C 127.347656 -15.347656 127.578125 -14.488281 127.828125 -13.625 C 128.585938 -10.21875 129.4375 -6.851562 130.375 -3.53125 C 131.582031 0.90625 132.890625 5.3125 134.296875 9.6875 C 135.703125 14.070312 137.367188 18.347656 139.296875 22.515625 Z M 89.09375 -13.5625 C 89.382812 -14.5625 89.414062 -15.226562 89.1875 -15.5625 C 88.957031 -15.894531 88.34375 -16.003906 87.34375 -15.890625 C 83.125 -15.585938 78.925781 -15.207031 74.75 -14.75 C 73.945312 -14.707031 73.144531 -14.640625 72.34375 -14.546875 C 62.957031 -13.628906 53.585938 -12.644531 44.234375 -11.59375 C 37.304688 -10.789062 30.363281 -9.890625 23.40625 -8.890625 C 20.226562 -8.472656 17.128906 -7.640625 14.109375 -6.390625 C 8.179688 -3.910156 5.265625 0.539062 5.359375 6.96875 C 5.398438 9.132812 5.648438 11.296875 6.109375 13.453125 C 6.773438 16.171875 7.617188 18.816406 8.640625 21.390625 C 9.671875 23.960938 10.816406 26.472656 12.078125 28.921875 C 15.398438 35.835938 19.65625 42.085938 24.84375 47.671875 C 27.5625 50.640625 30.648438 53.070312 34.109375 54.96875 C 40.015625 58.0625 45.882812 58.019531 51.71875 54.84375 C 55.238281 52.988281 58.335938 50.570312 61.015625 47.59375 C 65.046875 43.113281 68.46875 38.226562 71.28125 32.9375 C 77.15625 21.820312 81.9375 10.222656 85.625 -1.859375 C 86.832031 -5.742188 87.988281 -9.644531 89.09375 -13.5625 Z M 120.046875 -20.90625 C 120.085938 -20.945312 120.109375 -20.988281 120.109375 -21.03125 C 120.148438 -21.082031 120.1875 -21.132812 120.21875 -21.1875 C 120.257812 -21.25 120.242188 -21.28125 120.171875 -21.28125 C 115.710938 -42.507812 112.441406 -63.945312 110.359375 -85.59375 C 110.265625 -86.300781 110.140625 -87.007812 109.984375 -87.71875 C 109.941406 -87.851562 109.851562 -88.023438 109.71875 -88.234375 C 109.601562 -88.316406 109.5 -88.460938 109.40625 -88.671875 C 109.15625 -86.867188 108.878906 -85.0625 108.578125 -83.25 C 108.003906 -79.226562 107.398438 -75.222656 106.765625 -71.234375 C 105.890625 -65.453125 104.925781 -59.691406 103.875 -53.953125 C 103.28125 -50.722656 102.648438 -47.503906 101.984375 -44.296875 C 101.484375 -41.828125 101.003906 -39.335938 100.546875 -36.828125 C 100.046875 -34.347656 99.472656 -31.898438 98.828125 -29.484375 C 98.023438 -26.328125 97.34375 -23.132812 96.78125 -19.90625 C 98.101562 -19.738281 100.296875 -19.695312 103.359375 -19.78125 C 106.429688 -19.863281 109.5625 -20.003906 112.75 -20.203125 C 115.9375 -20.410156 118.367188 -20.644531 120.046875 -20.90625 Z M 120.046875 -20.90625 "/></g></g></g><g fill="#462009" fill-opacity="0.1882"><g transform="translate(150.904073, 234.533288)"><g><path d="M 3.84375 -34.015625 C 3 -33.921875 2.394531 -34.203125 2.03125 -34.859375 C 1.6875 -35.546875 1.785156 -36.144531 2.328125 -36.65625 C 2.953125 -37.15625 3.675781 -37.429688 4.5 -37.484375 C 5.320312 -37.546875 6.0625 -37.347656 6.71875 -36.890625 C 6.863281 -36.796875 6.96875 -36.671875 7.03125 -36.515625 C 7.03125 -36.421875 7.054688 -36.316406 7.109375 -36.203125 C 7.054688 -36.160156 7.03125 -36.09375 7.03125 -36 C 6.96875 -35.84375 6.890625 -35.679688 6.796875 -35.515625 C 5.992188 -34.671875 5.007812 -34.171875 3.84375 -34.015625 Z M 26.046875 -17.125 C 26.390625 -16.96875 26.515625 -16.738281 26.421875 -16.4375 C 26.328125 -16.132812 26.15625 -15.882812 25.90625 -15.6875 C 25.15625 -15.019531 24.425781 -14.390625 23.71875 -13.796875 C 21.195312 -11.671875 18.738281 -9.554688 16.34375 -7.453125 C 13.957031 -5.347656 11.53125 -3.035156 9.0625 -0.515625 C 7.382812 1.109375 6.195312 2.382812 5.5 3.3125 C 4.8125 4.238281 4.375 5.265625 4.1875 6.390625 C 4 7.523438 3.882812 9.226562 3.84375 11.5 C 3.632812 20.851562 2.6875 30.164062 1 39.4375 C 0.425781 42.5625 -0.488281 45.601562 -1.75 48.5625 C -2.394531 50.226562 -3.34375 51.710938 -4.59375 53.015625 C -5.8125 54.273438 -7.320312 54.925781 -9.125 54.96875 C -11.4375 55.082031 -13.097656 54.203125 -14.109375 52.328125 C -15.066406 50.523438 -15.625 48.640625 -15.78125 46.671875 C -16.082031 43.347656 -16.019531 40.050781 -15.59375 36.78125 C -15.175781 33.507812 -14.507812 30.265625 -13.59375 27.046875 C -11.53125 19.816406 -8.003906 13.203125 -3.015625 7.203125 C -1.460938 5.234375 -0.707031 3.070312 -0.75 0.71875 C -0.550781 -5.320312 -0.320312 -11.335938 -0.0625 -17.328125 C 0.0195312 -19.253906 0.0859375 -21.164062 0.140625 -23.0625 C 0.203125 -23.882812 0.28125 -24.671875 0.375 -25.421875 C 0.625 -26.429688 1.378906 -26.898438 2.640625 -26.828125 C 3.691406 -26.828125 4.34375 -26.40625 4.59375 -25.5625 C 4.894531 -24.21875 5.0625 -22.851562 5.09375 -21.46875 C 5.125 -20.082031 5.082031 -18.679688 4.96875 -17.265625 C 4.925781 -16.003906 4.859375 -14.769531 4.765625 -13.5625 C 4.566406 -10.488281 4.46875 -7.113281 4.46875 -3.4375 C 4.46875 -3.289062 4.53125 -3.144531 4.65625 -3 C 4.78125 -2.851562 4.914062 -2.75 5.0625 -2.6875 C 5.207031 -2.632812 5.382812 -2.6875 5.59375 -2.84375 C 5.9375 -3.144531 6.289062 -3.441406 6.65625 -3.734375 C 7.25 -4.242188 7.84375 -4.769531 8.4375 -5.3125 C 9.445312 -6.226562 11.1875 -7.640625 13.65625 -9.546875 C 16.125 -11.460938 18.578125 -13.210938 21.015625 -14.796875 C 23.453125 -16.390625 25.128906 -17.164062 26.046875 -17.125 Z M -4.59375 42.078125 C -3.5 37.203125 -2.671875 31.84375 -2.109375 26 C -1.546875 20.15625 -1.140625 14.691406 -0.890625 9.609375 C -2.609375 11.328125 -4.125 13.742188 -5.4375 16.859375 C -6.75 19.984375 -7.828125 23.359375 -8.671875 26.984375 C -9.523438 30.609375 -10.15625 34.003906 -10.5625 37.171875 C -10.976562 40.347656 -11.1875 42.816406 -11.1875 44.578125 C -11.113281 48.347656 -10.675781 50.492188 -9.875 51.015625 C -9.082031 51.546875 -8.179688 50.941406 -7.171875 49.203125 C -6.160156 47.472656 -5.300781 45.097656 -4.59375 42.078125 Z M -4.59375 42.078125 "/></g></g></g><g fill="#462009" fill-opacity="0.1882"><g transform="translate(174.305259, 234.533288)"><g><path d="M 33.078125 -16.578125 C 33.585938 -16.867188 34.082031 -17.09375 34.5625 -17.25 C 35.039062 -17.414062 35.351562 -17.40625 35.5 -17.21875 C 35.644531 -17.039062 35.445312 -16.628906 34.90625 -15.984375 C 33.1875 -14.023438 31.128906 -12.226562 28.734375 -10.59375 C 26.347656 -8.957031 23.894531 -7.578125 21.375 -6.453125 C 19.40625 -5.554688 17.328125 -4.84375 15.140625 -4.3125 C 12.960938 -3.789062 10.800781 -3.675781 8.65625 -3.96875 C 6.519531 -4.269531 4.570312 -5.222656 2.8125 -6.828125 C 0.132812 -9.296875 -0.972656 -12.316406 -0.515625 -15.890625 C -0.128906 -18.722656 0.972656 -21.128906 2.796875 -23.109375 C 4.617188 -25.085938 6.910156 -26.429688 9.671875 -27.140625 C 11.984375 -27.648438 14.296875 -27.707031 16.609375 -27.3125 C 17.660156 -27.15625 18.617188 -26.800781 19.484375 -26.25 C 20.285156 -25.632812 20.726562 -24.914062 20.8125 -24.09375 C 20.894531 -23.269531 20.582031 -22.476562 19.875 -21.71875 C 18.40625 -20.414062 16.710938 -19.640625 14.796875 -19.390625 C 12.640625 -19.023438 10.476562 -18.796875 8.3125 -18.703125 C 7.25 -18.703125 6.503906 -18.484375 6.078125 -18.046875 C 5.660156 -17.617188 5.421875 -16.875 5.359375 -15.8125 C 5.015625 -12.957031 5.925781 -10.625 8.09375 -8.8125 C 9.445312 -7.738281 11.085938 -7.28125 13.015625 -7.4375 C 14.953125 -7.601562 17.003906 -8.125 19.171875 -9 C 21.347656 -9.882812 23.476562 -10.914062 25.5625 -12.09375 C 27.644531 -13.269531 29.519531 -14.382812 31.1875 -15.4375 C 31.90625 -15.894531 32.535156 -16.273438 33.078125 -16.578125 Z M 9.234375 -22.6875 C 9.234375 -22.632812 9.195312 -22.609375 9.125 -22.609375 C 9.03125 -22.523438 8.910156 -22.414062 8.765625 -22.28125 C 8.617188 -22.15625 8.484375 -22.03125 8.359375 -21.90625 C 8.234375 -21.78125 8.171875 -21.695312 8.171875 -21.65625 C 8.210938 -21.488281 8.617188 -21.445312 9.390625 -21.53125 C 10.171875 -21.613281 11.03125 -21.75 11.96875 -21.9375 C 12.914062 -22.132812 13.703125 -22.398438 14.328125 -22.734375 C 14.953125 -23.066406 15.140625 -23.460938 14.890625 -23.921875 C 14.773438 -24.054688 14.628906 -24.175781 14.453125 -24.28125 C 14.285156 -24.382812 14.097656 -24.457031 13.890625 -24.5 C 12.984375 -24.5 12.148438 -24.320312 11.390625 -23.96875 C 10.640625 -23.613281 9.921875 -23.1875 9.234375 -22.6875 Z M 9.234375 -22.6875 "/></g></g></g><g fill="#462009" fill-opacity="0.1882"><g transform="translate(207.519847, 234.533288)"><g><path d="M 28.375 -13.21875 C 30.132812 -16.007812 31.179688 -17.78125 31.515625 -18.53125 C 31.847656 -19.28125 32.109375 -19.242188 32.296875 -18.421875 C 32.492188 -17.597656 31.929688 -15.738281 30.609375 -12.84375 C 29.285156 -9.957031 27.640625 -7.726562 25.671875 -6.15625 C 23.703125 -4.59375 21.863281 -4.015625 20.15625 -4.421875 C 18.457031 -4.835938 17.238281 -6.019531 16.5 -7.96875 C 15.769531 -9.925781 15.554688 -12.394531 15.859375 -15.375 C 15.859375 -15.414062 15.878906 -15.539062 15.921875 -15.75 C 15.960938 -16.25 16.046875 -16.988281 16.171875 -17.96875 C 16.304688 -18.957031 16.398438 -19.976562 16.453125 -21.03125 C 16.515625 -22.082031 16.476562 -22.953125 16.34375 -23.640625 C 16.21875 -24.328125 15.90625 -24.566406 15.40625 -24.359375 C 14.195312 -23.703125 13.015625 -22.40625 11.859375 -20.46875 C 10.703125 -18.539062 9.65625 -16.515625 8.71875 -14.390625 C 7.78125 -12.273438 7.113281 -10.566406 6.71875 -9.265625 C 6.5625 -8.847656 6.414062 -8.414062 6.28125 -7.96875 C 6.070312 -7.363281 5.84375 -6.765625 5.59375 -6.171875 C 4.925781 -4.460938 3.769531 -3.800781 2.125 -4.1875 C 1.207031 -4.394531 0.671875 -4.957031 0.515625 -5.875 C 0.472656 -6.582031 0.453125 -7.253906 0.453125 -7.890625 C 0.453125 -8.304688 0.425781 -8.6875 0.375 -9.03125 C 0.28125 -14.101562 0.15625 -19.210938 0 -24.359375 C 0.0390625 -24.953125 0.300781 -25.363281 0.78125 -25.59375 C 1.269531 -25.820312 1.84375 -25.9375 2.5 -25.9375 C 3.007812 -25.9375 3.484375 -25.800781 3.921875 -25.53125 C 4.367188 -25.257812 4.648438 -24.6875 4.765625 -23.8125 C 4.816406 -23.519531 4.84375 -23.222656 4.84375 -22.921875 C 4.882812 -22.765625 4.90625 -22.617188 4.90625 -22.484375 C 5 -21.765625 5.046875 -21.15625 5.046875 -20.65625 C 5.046875 -19.90625 5.097656 -19.390625 5.203125 -19.109375 C 5.304688 -18.835938 5.519531 -18.847656 5.84375 -19.140625 C 6.175781 -19.441406 6.722656 -20.15625 7.484375 -21.28125 C 8.785156 -23.289062 10.394531 -24.992188 12.3125 -26.390625 C 14.082031 -27.648438 16.019531 -28.175781 18.125 -27.96875 C 19.925781 -27.78125 21.132812 -26.832031 21.75 -25.125 C 22.007812 -24.25 22.140625 -23.367188 22.140625 -22.484375 C 22.140625 -21.609375 22.082031 -20.722656 21.96875 -19.828125 C 21.914062 -18.921875 21.84375 -17.984375 21.75 -17.015625 C 21.6875 -16.722656 21.628906 -16.425781 21.578125 -16.125 C 21.285156 -12.851562 21.390625 -10.660156 21.890625 -9.546875 C 22.398438 -8.441406 23.164062 -8.078125 24.1875 -8.453125 C 25.21875 -8.835938 26.613281 -10.425781 28.375 -13.21875 Z M 28.375 -13.21875 "/></g></g></g><g fill="#462009" fill-opacity="0.1882"><g transform="translate(237.714927, 234.533288)"><g><path d="M 37.296875 -17.328125 C 37.753906 -17.441406 38.144531 -17.484375 38.46875 -17.453125 C 38.789062 -17.421875 38.96875 -17.304688 39 -17.109375 C 39.03125 -16.910156 38.738281 -16.609375 38.125 -16.203125 C 37.875 -16.054688 37.578125 -15.859375 37.234375 -15.609375 C 36.023438 -14.742188 34.617188 -13.785156 33.015625 -12.734375 C 31.296875 -11.566406 29.734375 -10.492188 28.328125 -9.515625 C 26.921875 -8.546875 25.988281 -7.8125 25.53125 -7.3125 C 25.03125 -6.601562 24.71875 -5.828125 24.59375 -4.984375 C 24.46875 -4.148438 24.378906 -3.253906 24.328125 -2.296875 C 24.265625 -1.546875 24.1875 -0.789062 24.09375 -0.03125 C 22.789062 8.0625 20.585938 14.972656 17.484375 20.703125 C 14.378906 26.441406 10.890625 31.007812 7.015625 34.40625 C 3.140625 37.800781 -0.644531 40.019531 -4.34375 41.0625 C -8.039062 42.101562 -11.15625 41.960938 -13.6875 40.640625 C -16.226562 39.328125 -17.726562 36.84375 -18.1875 33.1875 C -18.4375 30.207031 -17.828125 27.164062 -16.359375 24.0625 C -14.898438 20.96875 -12.953125 18 -10.515625 15.15625 C -8.078125 12.320312 -5.5 9.722656 -2.78125 7.359375 C -0.0625 4.992188 2.453125 3.03125 4.765625 1.46875 C 5.410156 1.019531 6.085938 0.566406 6.796875 0.109375 C 10.066406 -2.160156 13.394531 -4.347656 16.78125 -6.453125 C 18.925781 -7.660156 19.929688 -9.421875 19.796875 -11.734375 C 19.796875 -11.984375 19.796875 -12.335938 19.796875 -12.796875 C 19.734375 -13.460938 19.703125 -14.171875 19.703125 -14.921875 C 18.390625 -12.867188 16.550781 -11.003906 14.1875 -9.328125 C 11.820312 -7.660156 9.394531 -6.46875 6.90625 -5.75 C 4.425781 -5.03125 2.304688 -5.066406 0.546875 -5.859375 C -1.210938 -6.660156 -2.128906 -8.53125 -2.203125 -11.46875 C -2.128906 -12.976562 -1.691406 -14.359375 -0.890625 -15.609375 C 1.003906 -18.972656 3.644531 -21.617188 7.03125 -23.546875 C 8.289062 -24.234375 9.8125 -24.726562 11.59375 -25.03125 C 13.382812 -25.34375 15.109375 -25.320312 16.765625 -24.96875 C 18.421875 -24.613281 19.753906 -23.804688 20.765625 -22.546875 C 21.015625 -22.953125 21.378906 -23.21875 21.859375 -23.34375 C 22.335938 -23.476562 22.785156 -23.546875 23.203125 -23.546875 C 23.285156 -23.546875 23.351562 -23.546875 23.40625 -23.546875 C 25.28125 -23.722656 26.160156 -22.863281 26.046875 -20.96875 C 26.003906 -19.59375 25.957031 -18.234375 25.90625 -16.890625 C 25.863281 -15.878906 25.804688 -14.894531 25.734375 -13.9375 C 25.804688 -12.789062 26.441406 -12.414062 27.640625 -12.8125 C 28.835938 -13.21875 30.296875 -13.898438 32.015625 -14.859375 C 33.984375 -16.003906 35.742188 -16.828125 37.296875 -17.328125 Z M 15.265625 -15.4375 C 17.367188 -17.570312 18.523438 -19.207031 18.734375 -20.34375 C 18.234375 -21.257812 17.453125 -21.816406 16.390625 -22.015625 C 15.328125 -22.210938 14.242188 -22.203125 13.140625 -21.984375 C 12.046875 -21.765625 11.117188 -21.425781 10.359375 -20.96875 C 8.273438 -19.664062 6.75 -18.082031 5.78125 -16.21875 C 4.8125 -14.351562 4.453125 -12.757812 4.703125 -11.4375 C 4.953125 -10.125 5.925781 -9.671875 7.625 -10.078125 C 9.332031 -10.492188 11.878906 -12.28125 15.265625 -15.4375 Z M 18.125 -0.40625 C 18.125 -0.476562 18.144531 -0.535156 18.1875 -0.578125 C 18.257812 -0.878906 18.316406 -1.257812 18.359375 -1.71875 C 18.398438 -2.175781 18.378906 -2.550781 18.296875 -2.84375 C 18.222656 -3.144531 18.035156 -3.191406 17.734375 -2.984375 C 15.628906 -1.523438 13.425781 0.0859375 11.125 1.859375 C 9.75 2.859375 8.453125 3.78125 7.234375 4.625 C 5.546875 5.882812 3.566406 7.519531 1.296875 9.53125 C -0.960938 11.550781 -3.175781 13.804688 -5.34375 16.296875 C -7.519531 18.796875 -9.3125 21.351562 -10.71875 23.96875 C -12.125 26.59375 -12.828125 29.101562 -12.828125 31.5 C -12.671875 34.9375 -11.710938 37.003906 -9.953125 37.703125 C -8.191406 38.398438 -5.976562 37.96875 -3.3125 36.40625 C -0.644531 34.851562 2.117188 32.335938 4.984375 28.859375 C 7.859375 25.378906 10.476562 21.148438 12.84375 16.171875 C 15.21875 11.203125 16.976562 5.675781 18.125 -0.40625 Z M 18.125 -0.40625 "/></g></g></g><g fill="#462009" fill-opacity="0.1882"><g transform="translate(274.051969, 234.533288)"><g><path d="M 38.828125 -17.625 C 38.203125 -15.707031 36.957031 -13.507812 35.09375 -11.03125 C 33.226562 -8.550781 30.898438 -6.957031 28.109375 -6.25 C 25.316406 -5.539062 22.898438 -5.632812 20.859375 -6.53125 C 18.828125 -7.4375 17.707031 -9.859375 17.5 -13.796875 C 15.1875 -9.304688 12.984375 -6.429688 10.890625 -5.171875 C 8.796875 -3.921875 6.617188 -3.441406 4.359375 -3.734375 C 1.796875 -4.148438 0.0625 -5.144531 -0.84375 -6.71875 C -1.75 -8.300781 -2.050781 -10.128906 -1.75 -12.203125 C -1.445312 -14.273438 -0.816406 -16.257812 0.140625 -18.15625 C 0.890625 -19.570312 1.929688 -20.882812 3.265625 -22.09375 C 4.609375 -23.3125 6.015625 -24.265625 7.484375 -24.953125 C 9.285156 -25.867188 11.101562 -26.300781 12.9375 -26.25 C 14.769531 -26.207031 16.726562 -25.601562 18.8125 -24.4375 C 18.851562 -24.382812 18.875 -24.429688 18.875 -24.578125 C 18.875 -24.773438 18.925781 -25.03125 19.03125 -25.34375 C 19.132812 -25.65625 19.3125 -25.898438 19.5625 -26.078125 C 20.25 -26.578125 21.0625 -26.828125 22 -26.828125 C 22.9375 -26.828125 23.65625 -26.359375 24.15625 -25.421875 C 24.25 -24.210938 24.125 -22.671875 23.78125 -20.796875 C 23.03125 -16.679688 23.03125 -13.71875 23.78125 -11.90625 C 24.539062 -10.101562 25.875 -9.265625 27.78125 -9.390625 C 29.6875 -9.515625 32.160156 -11.398438 35.203125 -15.046875 C 38.242188 -18.691406 39.453125 -19.550781 38.828125 -17.625 Z M 5.046875 -7.96875 C 6.097656 -7.207031 7.300781 -7.304688 8.65625 -8.265625 C 10.019531 -9.234375 11.332031 -10.597656 12.59375 -12.359375 C 13.851562 -14.117188 14.910156 -15.878906 15.765625 -17.640625 C 16.628906 -19.398438 17.101562 -20.703125 17.1875 -21.546875 C 14.625 -22.921875 12.425781 -23.15625 10.59375 -22.25 C 8.769531 -21.351562 7.3125 -19.878906 6.21875 -17.828125 C 5.132812 -15.773438 4.488281 -13.78125 4.28125 -11.84375 C 4.082031 -9.914062 4.335938 -8.625 5.046875 -7.96875 Z M 5.046875 -7.96875 "/></g></g></g><g fill="#462009" fill-opacity="0.1882"><g transform="translate(310.423315, 234.533288)"><g><path d="M 28.375 -13.21875 C 30.132812 -16.007812 31.179688 -17.78125 31.515625 -18.53125 C 31.847656 -19.28125 32.109375 -19.242188 32.296875 -18.421875 C 32.492188 -17.597656 31.929688 -15.738281 30.609375 -12.84375 C 29.285156 -9.957031 27.640625 -7.726562 25.671875 -6.15625 C 23.703125 -4.59375 21.863281 -4.015625 20.15625 -4.421875 C 18.457031 -4.835938 17.238281 -6.019531 16.5 -7.96875 C 15.769531 -9.925781 15.554688 -12.394531 15.859375 -15.375 C 15.859375 -15.414062 15.878906 -15.539062 15.921875 -15.75 C 15.960938 -16.25 16.046875 -16.988281 16.171875 -17.96875 C 16.304688 -18.957031 16.398438 -19.976562 16.453125 -21.03125 C 16.515625 -22.082031 16.476562 -22.953125 16.34375 -23.640625 C 16.21875 -24.328125 15.90625 -24.566406 15.40625 -24.359375 C 14.195312 -23.703125 13.015625 -22.40625 11.859375 -20.46875 C 10.703125 -18.539062 9.65625 -16.515625 8.71875 -14.390625 C 7.78125 -12.273438 7.113281 -10.566406 6.71875 -9.265625 C 6.5625 -8.847656 6.414062 -8.414062 6.28125 -7.96875 C 6.070312 -7.363281 5.84375 -6.765625 5.59375 -6.171875 C 4.925781 -4.460938 3.769531 -3.800781 2.125 -4.1875 C 1.207031 -4.394531 0.671875 -4.957031 0.515625 -5.875 C 0.472656 -6.582031 0.453125 -7.253906 0.453125 -7.890625 C 0.453125 -8.304688 0.425781 -8.6875 0.375 -9.03125 C 0.28125 -14.101562 0.15625 -19.210938 0 -24.359375 C 0.0390625 -24.953125 0.300781 -25.363281 0.78125 -25.59375 C 1.269531 -25.820312 1.84375 -25.9375 2.5 -25.9375 C 3.007812 -25.9375 3.484375 -25.800781 3.921875 -25.53125 C 4.367188 -25.257812 4.648438 -24.6875 4.765625 -23.8125 C 4.816406 -23.519531 4.84375 -23.222656 4.84375 -22.921875 C 4.882812 -22.765625 4.90625 -22.617188 4.90625 -22.484375 C 5 -21.765625 5.046875 -21.15625 5.046875 -20.65625 C 5.046875 -19.90625 5.097656 -19.390625 5.203125 -19.109375 C 5.304688 -18.835938 5.519531 -18.847656 5.84375 -19.140625 C 6.175781 -19.441406 6.722656 -20.15625 7.484375 -21.28125 C 8.785156 -23.289062 10.394531 -24.992188 12.3125 -26.390625 C 14.082031 -27.648438 16.019531 -28.175781 18.125 -27.96875 C 19.925781 -27.78125 21.132812 -26.832031 21.75 -25.125 C 22.007812 -24.25 22.140625 -23.367188 22.140625 -22.484375 C 22.140625 -21.609375 22.082031 -20.722656 21.96875 -19.828125 C 21.914062 -18.921875 21.84375 -17.984375 21.75 -17.015625 C 21.6875 -16.722656 21.628906 -16.425781 21.578125 -16.125 C 21.285156 -12.851562 21.390625 -10.660156 21.890625 -9.546875 C 22.398438 -8.441406 23.164062 -8.078125 24.1875 -8.453125 C 25.21875 -8.835938 26.613281 -10.425781 28.375 -13.21875 Z M 28.375 -13.21875 "/></g></g></g><g fill="#462009" fill-opacity="1"><g transform="translate(7.116529, 231.427367)"><g><path d="M 139.296875 22.515625 C 139.503906 22.921875 139.628906 23.351562 139.671875 23.8125 C 139.765625 24.457031 139.488281 24.878906 138.84375 25.078125 C 136.875 25.796875 135.390625 25.269531 134.390625 23.5 C 133.679688 22.25 133.023438 20.945312 132.421875 19.59375 C 131.054688 16.363281 129.832031 13.070312 128.75 9.71875 C 127.675781 6.375 126.679688 3.019531 125.765625 -0.34375 C 124.972656 -3.3125 124.195312 -6.285156 123.4375 -9.265625 C 122.9375 -11.367188 122.410156 -13.484375 121.859375 -15.609375 C 121.609375 -16.660156 121.304688 -17.3125 120.953125 -17.5625 C 120.597656 -17.820312 119.894531 -17.925781 118.84375 -17.875 C 115.40625 -17.675781 111.984375 -17.472656 108.578125 -17.265625 C 104.984375 -17.054688 101.40625 -16.882812 97.84375 -16.75 C 96.945312 -16.675781 96.28125 -16.414062 95.84375 -15.96875 C 95.414062 -15.53125 95.097656 -14.910156 94.890625 -14.109375 C 92.691406 -5.796875 90.101562 2.414062 87.125 10.53125 C 85.113281 15.863281 82.898438 21.109375 80.484375 26.265625 C 78.078125 31.429688 75.304688 36.40625 72.171875 41.1875 C 69.359375 45.457031 66.015625 49.273438 62.140625 52.640625 C 58.304688 56.023438 53.953125 58.289062 49.078125 59.4375 C 42.367188 60.988281 35.992188 60.164062 29.953125 56.96875 C 26.335938 54.957031 23.148438 52.441406 20.390625 49.421875 C 11.117188 39.347656 4.65625 27.710938 1 14.515625 C 0.332031 12.109375 0 9.648438 0 7.140625 L 0 6.96875 C 0 6.46875 0.0195312 5.941406 0.0625 5.390625 C 0.4375 -0.441406 3.1875 -4.800781 8.3125 -7.6875 C 10.269531 -8.738281 12.289062 -9.578125 14.375 -10.203125 C 16.457031 -10.835938 18.585938 -11.300781 20.765625 -11.59375 C 27.265625 -12.601562 33.785156 -13.484375 40.328125 -14.234375 C 50.734375 -15.398438 61.175781 -16.488281 71.65625 -17.5 C 75.3125 -17.84375 78.957031 -18.140625 82.59375 -18.390625 C 84.363281 -18.484375 86.101562 -18.609375 87.8125 -18.765625 C 89.007812 -18.816406 89.8125 -18.976562 90.21875 -19.25 C 90.632812 -19.519531 90.96875 -20.21875 91.21875 -21.34375 C 91.851562 -23.695312 92.484375 -26.085938 93.109375 -28.515625 C 97.316406 -47.023438 100.65625 -65.691406 103.125 -84.515625 C 104.789062 -96.253906 106.101562 -108.015625 107.0625 -119.796875 C 107.320312 -123.503906 107.492188 -127.222656 107.578125 -130.953125 C 107.628906 -132.617188 107.710938 -134.28125 107.828125 -135.9375 C 107.828125 -136.1875 107.828125 -136.4375 107.828125 -136.6875 C 107.828125 -137.1875 107.847656 -137.664062 107.890625 -138.125 C 107.941406 -139.082031 108.175781 -139.75 108.59375 -140.125 C 109.019531 -140.507812 109.710938 -140.703125 110.671875 -140.703125 C 111.628906 -140.742188 112.320312 -140.578125 112.75 -140.203125 C 113.175781 -139.828125 113.390625 -139.132812 113.390625 -138.125 C 113.390625 -134.757812 113.390625 -131.296875 113.390625 -127.734375 C 113.390625 -126.222656 113.390625 -124.675781 113.390625 -123.09375 C 113.585938 -113.488281 114.125 -103.628906 115 -93.515625 C 115.9375 -82.191406 117.191406 -70.890625 118.765625 -59.609375 C 120.367188 -47.890625 122.472656 -36.269531 125.078125 -24.75 C 125.191406 -24.195312 125.320312 -23.664062 125.46875 -23.15625 C 125.582031 -22.84375 125.679688 -22.515625 125.765625 -22.171875 C 126.066406 -21.210938 126.722656 -20.789062 127.734375 -20.90625 C 129.898438 -20.945312 132.09375 -20.988281 134.3125 -21.03125 C 135.363281 -21.125 136.347656 -20.921875 137.265625 -20.421875 C 137.609375 -20.171875 137.78125 -19.789062 137.78125 -19.28125 C 137.738281 -19.03125 137.625 -18.84375 137.4375 -18.71875 C 137.257812 -18.59375 137.078125 -18.53125 136.890625 -18.53125 C 135.816406 -18.488281 134.726562 -18.46875 133.625 -18.46875 C 133.125 -18.414062 132.625 -18.390625 132.125 -18.390625 C 131.820312 -18.390625 131.546875 -18.390625 131.296875 -18.390625 C 130.378906 -18.390625 129.5 -18.367188 128.65625 -18.328125 C 127.351562 -18.210938 126.847656 -17.503906 127.140625 -16.203125 C 127.347656 -15.347656 127.578125 -14.488281 127.828125 -13.625 C 128.585938 -10.21875 129.4375 -6.851562 130.375 -3.53125 C 131.582031 0.90625 132.890625 5.3125 134.296875 9.6875 C 135.703125 14.070312 137.367188 18.347656 139.296875 22.515625 Z M 89.09375 -13.5625 C 89.382812 -14.5625 89.414062 -15.226562 89.1875 -15.5625 C 88.957031 -15.894531 88.34375 -16.003906 87.34375 -15.890625 C 83.125 -15.585938 78.925781 -15.207031 74.75 -14.75 C 73.945312 -14.707031 73.144531 -14.640625 72.34375 -14.546875 C 62.957031 -13.628906 53.585938 -12.644531 44.234375 -11.59375 C 37.304688 -10.789062 30.363281 -9.890625 23.40625 -8.890625 C 20.226562 -8.472656 17.128906 -7.640625 14.109375 -6.390625 C 8.179688 -3.910156 5.265625 0.539062 5.359375 6.96875 C 5.398438 9.132812 5.648438 11.296875 6.109375 13.453125 C 6.773438 16.171875 7.617188 18.816406 8.640625 21.390625 C 9.671875 23.960938 10.816406 26.472656 12.078125 28.921875 C 15.398438 35.835938 19.65625 42.085938 24.84375 47.671875 C 27.5625 50.640625 30.648438 53.070312 34.109375 54.96875 C 40.015625 58.0625 45.882812 58.019531 51.71875 54.84375 C 55.238281 52.988281 58.335938 50.570312 61.015625 47.59375 C 65.046875 43.113281 68.46875 38.226562 71.28125 32.9375 C 77.15625 21.820312 81.9375 10.222656 85.625 -1.859375 C 86.832031 -5.742188 87.988281 -9.644531 89.09375 -13.5625 Z M 120.046875 -20.90625 C 120.085938 -20.945312 120.109375 -20.988281 120.109375 -21.03125 C 120.148438 -21.082031 120.1875 -21.132812 120.21875 -21.1875 C 120.257812 -21.25 120.242188 -21.28125 120.171875 -21.28125 C 115.710938 -42.507812 112.441406 -63.945312 110.359375 -85.59375 C 110.265625 -86.300781 110.140625 -87.007812 109.984375 -87.71875 C 109.941406 -87.851562 109.851562 -88.023438 109.71875 -88.234375 C 109.601562 -88.316406 109.5 -88.460938 109.40625 -88.671875 C 109.15625 -86.867188 108.878906 -85.0625 108.578125 -83.25 C 108.003906 -79.226562 107.398438 -75.222656 106.765625 -71.234375 C 105.890625 -65.453125 104.925781 -59.691406 103.875 -53.953125 C 103.28125 -50.722656 102.648438 -47.503906 101.984375 -44.296875 C 101.484375 -41.828125 101.003906 -39.335938 100.546875 -36.828125 C 100.046875 -34.347656 99.472656 -31.898438 98.828125 -29.484375 C 98.023438 -26.328125 97.34375 -23.132812 96.78125 -19.90625 C 98.101562 -19.738281 100.296875 -19.695312 103.359375 -19.78125 C 106.429688 -19.863281 109.5625 -20.003906 112.75 -20.203125 C 115.9375 -20.410156 118.367188 -20.644531 120.046875 -20.90625 Z M 120.046875 -20.90625 "/></g></g></g><g fill="#462009" fill-opacity="1"><g transform="translate(147.798149, 231.427367)"><g><path d="M 3.84375 -34.015625 C 3 -33.921875 2.394531 -34.203125 2.03125 -34.859375 C 1.6875 -35.546875 1.785156 -36.144531 2.328125 -36.65625 C 2.953125 -37.15625 3.675781 -37.429688 4.5 -37.484375 C 5.320312 -37.546875 6.0625 -37.347656 6.71875 -36.890625 C 6.863281 -36.796875 6.96875 -36.671875 7.03125 -36.515625 C 7.03125 -36.421875 7.054688 -36.316406 7.109375 -36.203125 C 7.054688 -36.160156 7.03125 -36.09375 7.03125 -36 C 6.96875 -35.84375 6.890625 -35.679688 6.796875 -35.515625 C 5.992188 -34.671875 5.007812 -34.171875 3.84375 -34.015625 Z M 26.046875 -17.125 C 26.390625 -16.96875 26.515625 -16.738281 26.421875 -16.4375 C 26.328125 -16.132812 26.15625 -15.882812 25.90625 -15.6875 C 25.15625 -15.019531 24.425781 -14.390625 23.71875 -13.796875 C 21.195312 -11.671875 18.738281 -9.554688 16.34375 -7.453125 C 13.957031 -5.347656 11.53125 -3.035156 9.0625 -0.515625 C 7.382812 1.109375 6.195312 2.382812 5.5 3.3125 C 4.8125 4.238281 4.375 5.265625 4.1875 6.390625 C 4 7.523438 3.882812 9.226562 3.84375 11.5 C 3.632812 20.851562 2.6875 30.164062 1 39.4375 C 0.425781 42.5625 -0.488281 45.601562 -1.75 48.5625 C -2.394531 50.226562 -3.34375 51.710938 -4.59375 53.015625 C -5.8125 54.273438 -7.320312 54.925781 -9.125 54.96875 C -11.4375 55.082031 -13.097656 54.203125 -14.109375 52.328125 C -15.066406 50.523438 -15.625 48.640625 -15.78125 46.671875 C -16.082031 43.347656 -16.019531 40.050781 -15.59375 36.78125 C -15.175781 33.507812 -14.507812 30.265625 -13.59375 27.046875 C -11.53125 19.816406 -8.003906 13.203125 -3.015625 7.203125 C -1.460938 5.234375 -0.707031 3.070312 -0.75 0.71875 C -0.550781 -5.320312 -0.320312 -11.335938 -0.0625 -17.328125 C 0.0195312 -19.253906 0.0859375 -21.164062 0.140625 -23.0625 C 0.203125 -23.882812 0.28125 -24.671875 0.375 -25.421875 C 0.625 -26.429688 1.378906 -26.898438 2.640625 -26.828125 C 3.691406 -26.828125 4.34375 -26.40625 4.59375 -25.5625 C 4.894531 -24.21875 5.0625 -22.851562 5.09375 -21.46875 C 5.125 -20.082031 5.082031 -18.679688 4.96875 -17.265625 C 4.925781 -16.003906 4.859375 -14.769531 4.765625 -13.5625 C 4.566406 -10.488281 4.46875 -7.113281 4.46875 -3.4375 C 4.46875 -3.289062 4.53125 -3.144531 4.65625 -3 C 4.78125 -2.851562 4.914062 -2.75 5.0625 -2.6875 C 5.207031 -2.632812 5.382812 -2.6875 5.59375 -2.84375 C 5.9375 -3.144531 6.289062 -3.441406 6.65625 -3.734375 C 7.25 -4.242188 7.84375 -4.769531 8.4375 -5.3125 C 9.445312 -6.226562 11.1875 -7.640625 13.65625 -9.546875 C 16.125 -11.460938 18.578125 -13.210938 21.015625 -14.796875 C 23.453125 -16.390625 25.128906 -17.164062 26.046875 -17.125 Z M -4.59375 42.078125 C -3.5 37.203125 -2.671875 31.84375 -2.109375 26 C -1.546875 20.15625 -1.140625 14.691406 -0.890625 9.609375 C -2.609375 11.328125 -4.125 13.742188 -5.4375 16.859375 C -6.75 19.984375 -7.828125 23.359375 -8.671875 26.984375 C -9.523438 30.609375 -10.15625 34.003906 -10.5625 37.171875 C -10.976562 40.347656 -11.1875 42.816406 -11.1875 44.578125 C -11.113281 48.347656 -10.675781 50.492188 -9.875 51.015625 C -9.082031 51.546875 -8.179688 50.941406 -7.171875 49.203125 C -6.160156 47.472656 -5.300781 45.097656 -4.59375 42.078125 Z M -4.59375 42.078125 "/></g></g></g><g fill="#462009" fill-opacity="1"><g transform="translate(171.199335, 231.427367)"><g><path d="M 33.078125 -16.578125 C 33.585938 -16.867188 34.082031 -17.09375 34.5625 -17.25 C 35.039062 -17.414062 35.351562 -17.40625 35.5 -17.21875 C 35.644531 -17.039062 35.445312 -16.628906 34.90625 -15.984375 C 33.1875 -14.023438 31.128906 -12.226562 28.734375 -10.59375 C 26.347656 -8.957031 23.894531 -7.578125 21.375 -6.453125 C 19.40625 -5.554688 17.328125 -4.84375 15.140625 -4.3125 C 12.960938 -3.789062 10.800781 -3.675781 8.65625 -3.96875 C 6.519531 -4.269531 4.570312 -5.222656 2.8125 -6.828125 C 0.132812 -9.296875 -0.972656 -12.316406 -0.515625 -15.890625 C -0.128906 -18.722656 0.972656 -21.128906 2.796875 -23.109375 C 4.617188 -25.085938 6.910156 -26.429688 9.671875 -27.140625 C 11.984375 -27.648438 14.296875 -27.707031 16.609375 -27.3125 C 17.660156 -27.15625 18.617188 -26.800781 19.484375 -26.25 C 20.285156 -25.632812 20.726562 -24.914062 20.8125 -24.09375 C 20.894531 -23.269531 20.582031 -22.476562 19.875 -21.71875 C 18.40625 -20.414062 16.710938 -19.640625 14.796875 -19.390625 C 12.640625 -19.023438 10.476562 -18.796875 8.3125 -18.703125 C 7.25 -18.703125 6.503906 -18.484375 6.078125 -18.046875 C 5.660156 -17.617188 5.421875 -16.875 5.359375 -15.8125 C 5.015625 -12.957031 5.925781 -10.625 8.09375 -8.8125 C 9.445312 -7.738281 11.085938 -7.28125 13.015625 -7.4375 C 14.953125 -7.601562 17.003906 -8.125 19.171875 -9 C 21.347656 -9.882812 23.476562 -10.914062 25.5625 -12.09375 C 27.644531 -13.269531 29.519531 -14.382812 31.1875 -15.4375 C 31.90625 -15.894531 32.535156 -16.273438 33.078125 -16.578125 Z M 9.234375 -22.6875 C 9.234375 -22.632812 9.195312 -22.609375 9.125 -22.609375 C 9.03125 -22.523438 8.910156 -22.414062 8.765625 -22.28125 C 8.617188 -22.15625 8.484375 -22.03125 8.359375 -21.90625 C 8.234375 -21.78125 8.171875 -21.695312 8.171875 -21.65625 C 8.210938 -21.488281 8.617188 -21.445312 9.390625 -21.53125 C 10.171875 -21.613281 11.03125 -21.75 11.96875 -21.9375 C 12.914062 -22.132812 13.703125 -22.398438 14.328125 -22.734375 C 14.953125 -23.066406 15.140625 -23.460938 14.890625 -23.921875 C 14.773438 -24.054688 14.628906 -24.175781 14.453125 -24.28125 C 14.285156 -24.382812 14.097656 -24.457031 13.890625 -24.5 C 12.984375 -24.5 12.148438 -24.320312 11.390625 -23.96875 C 10.640625 -23.613281 9.921875 -23.1875 9.234375 -22.6875 Z M 9.234375 -22.6875 "/></g></g></g><g fill="#462009" fill-opacity="1"><g transform="translate(204.413923, 231.427367)"><g><path d="M 28.375 -13.21875 C 30.132812 -16.007812 31.179688 -17.78125 31.515625 -18.53125 C 31.847656 -19.28125 32.109375 -19.242188 32.296875 -18.421875 C 32.492188 -17.597656 31.929688 -15.738281 30.609375 -12.84375 C 29.285156 -9.957031 27.640625 -7.726562 25.671875 -6.15625 C 23.703125 -4.59375 21.863281 -4.015625 20.15625 -4.421875 C 18.457031 -4.835938 17.238281 -6.019531 16.5 -7.96875 C 15.769531 -9.925781 15.554688 -12.394531 15.859375 -15.375 C 15.859375 -15.414062 15.878906 -15.539062 15.921875 -15.75 C 15.960938 -16.25 16.046875 -16.988281 16.171875 -17.96875 C 16.304688 -18.957031 16.398438 -19.976562 16.453125 -21.03125 C 16.515625 -22.082031 16.476562 -22.953125 16.34375 -23.640625 C 16.21875 -24.328125 15.90625 -24.566406 15.40625 -24.359375 C 14.195312 -23.703125 13.015625 -22.40625 11.859375 -20.46875 C 10.703125 -18.539062 9.65625 -16.515625 8.71875 -14.390625 C 7.78125 -12.273438 7.113281 -10.566406 6.71875 -9.265625 C 6.5625 -8.847656 6.414062 -8.414062 6.28125 -7.96875 C 6.070312 -7.363281 5.84375 -6.765625 5.59375 -6.171875 C 4.925781 -4.460938 3.769531 -3.800781 2.125 -4.1875 C 1.207031 -4.394531 0.671875 -4.957031 0.515625 -5.875 C 0.472656 -6.582031 0.453125 -7.253906 0.453125 -7.890625 C 0.453125 -8.304688 0.425781 -8.6875 0.375 -9.03125 C 0.28125 -14.101562 0.15625 -19.210938 0 -24.359375 C 0.0390625 -24.953125 0.300781 -25.363281 0.78125 -25.59375 C 1.269531 -25.820312 1.84375 -25.9375 2.5 -25.9375 C 3.007812 -25.9375 3.484375 -25.800781 3.921875 -25.53125 C 4.367188 -25.257812 4.648438 -24.6875 4.765625 -23.8125 C 4.816406 -23.519531 4.84375 -23.222656 4.84375 -22.921875 C 4.882812 -22.765625 4.90625 -22.617188 4.90625 -22.484375 C 5 -21.765625 5.046875 -21.15625 5.046875 -20.65625 C 5.046875 -19.90625 5.097656 -19.390625 5.203125 -19.109375 C 5.304688 -18.835938 5.519531 -18.847656 5.84375 -19.140625 C 6.175781 -19.441406 6.722656 -20.15625 7.484375 -21.28125 C 8.785156 -23.289062 10.394531 -24.992188 12.3125 -26.390625 C 14.082031 -27.648438 16.019531 -28.175781 18.125 -27.96875 C 19.925781 -27.78125 21.132812 -26.832031 21.75 -25.125 C 22.007812 -24.25 22.140625 -23.367188 22.140625 -22.484375 C 22.140625 -21.609375 22.082031 -20.722656 21.96875 -19.828125 C 21.914062 -18.921875 21.84375 -17.984375 21.75 -17.015625 C 21.6875 -16.722656 21.628906 -16.425781 21.578125 -16.125 C 21.285156 -12.851562 21.390625 -10.660156 21.890625 -9.546875 C 22.398438 -8.441406 23.164062 -8.078125 24.1875 -8.453125 C 25.21875 -8.835938 26.613281 -10.425781 28.375 -13.21875 Z M 28.375 -13.21875 "/></g></g></g><g fill="#462009" fill-opacity="1"><g transform="translate(234.609003, 231.427367)"><g><path d="M 37.296875 -17.328125 C 37.753906 -17.441406 38.144531 -17.484375 38.46875 -17.453125 C 38.789062 -17.421875 38.96875 -17.304688 39 -17.109375 C 39.03125 -16.910156 38.738281 -16.609375 38.125 -16.203125 C 37.875 -16.054688 37.578125 -15.859375 37.234375 -15.609375 C 36.023438 -14.742188 34.617188 -13.785156 33.015625 -12.734375 C 31.296875 -11.566406 29.734375 -10.492188 28.328125 -9.515625 C 26.921875 -8.546875 25.988281 -7.8125 25.53125 -7.3125 C 25.03125 -6.601562 24.71875 -5.828125 24.59375 -4.984375 C 24.46875 -4.148438 24.378906 -3.253906 24.328125 -2.296875 C 24.265625 -1.546875 24.1875 -0.789062 24.09375 -0.03125 C 22.789062 8.0625 20.585938 14.972656 17.484375 20.703125 C 14.378906 26.441406 10.890625 31.007812 7.015625 34.40625 C 3.140625 37.800781 -0.644531 40.019531 -4.34375 41.0625 C -8.039062 42.101562 -11.15625 41.960938 -13.6875 40.640625 C -16.226562 39.328125 -17.726562 36.84375 -18.1875 33.1875 C -18.4375 30.207031 -17.828125 27.164062 -16.359375 24.0625 C -14.898438 20.96875 -12.953125 18 -10.515625 15.15625 C -8.078125 12.320312 -5.5 9.722656 -2.78125 7.359375 C -0.0625 4.992188 2.453125 3.03125 4.765625 1.46875 C 5.410156 1.019531 6.085938 0.566406 6.796875 0.109375 C 10.066406 -2.160156 13.394531 -4.347656 16.78125 -6.453125 C 18.925781 -7.660156 19.929688 -9.421875 19.796875 -11.734375 C 19.796875 -11.984375 19.796875 -12.335938 19.796875 -12.796875 C 19.734375 -13.460938 19.703125 -14.171875 19.703125 -14.921875 C 18.390625 -12.867188 16.550781 -11.003906 14.1875 -9.328125 C 11.820312 -7.660156 9.394531 -6.46875 6.90625 -5.75 C 4.425781 -5.03125 2.304688 -5.066406 0.546875 -5.859375 C -1.210938 -6.660156 -2.128906 -8.53125 -2.203125 -11.46875 C -2.128906 -12.976562 -1.691406 -14.359375 -0.890625 -15.609375 C 1.003906 -18.972656 3.644531 -21.617188 7.03125 -23.546875 C 8.289062 -24.234375 9.8125 -24.726562 11.59375 -25.03125 C 13.382812 -25.34375 15.109375 -25.320312 16.765625 -24.96875 C 18.421875 -24.613281 19.753906 -23.804688 20.765625 -22.546875 C 21.015625 -22.953125 21.378906 -23.21875 21.859375 -23.34375 C 22.335938 -23.476562 22.785156 -23.546875 23.203125 -23.546875 C 23.285156 -23.546875 23.351562 -23.546875 23.40625 -23.546875 C 25.28125 -23.722656 26.160156 -22.863281 26.046875 -20.96875 C 26.003906 -19.59375 25.957031 -18.234375 25.90625 -16.890625 C 25.863281 -15.878906 25.804688 -14.894531 25.734375 -13.9375 C 25.804688 -12.789062 26.441406 -12.414062 27.640625 -12.8125 C 28.835938 -13.21875 30.296875 -13.898438 32.015625 -14.859375 C 33.984375 -16.003906 35.742188 -16.828125 37.296875 -17.328125 Z M 15.265625 -15.4375 C 17.367188 -17.570312 18.523438 -19.207031 18.734375 -20.34375 C 18.234375 -21.257812 17.453125 -21.816406 16.390625 -22.015625 C 15.328125 -22.210938 14.242188 -22.203125 13.140625 -21.984375 C 12.046875 -21.765625 11.117188 -21.425781 10.359375 -20.96875 C 8.273438 -19.664062 6.75 -18.082031 5.78125 -16.21875 C 4.8125 -14.351562 4.453125 -12.757812 4.703125 -11.4375 C 4.953125 -10.125 5.925781 -9.671875 7.625 -10.078125 C 9.332031 -10.492188 11.878906 -12.28125 15.265625 -15.4375 Z M 18.125 -0.40625 C 18.125 -0.476562 18.144531 -0.535156 18.1875 -0.578125 C 18.257812 -0.878906 18.316406 -1.257812 18.359375 -1.71875 C 18.398438 -2.175781 18.378906 -2.550781 18.296875 -2.84375 C 18.222656 -3.144531 18.035156 -3.191406 17.734375 -2.984375 C 15.628906 -1.523438 13.425781 0.0859375 11.125 1.859375 C 9.75 2.859375 8.453125 3.78125 7.234375 4.625 C 5.546875 5.882812 3.566406 7.519531 1.296875 9.53125 C -0.960938 11.550781 -3.175781 13.804688 -5.34375 16.296875 C -7.519531 18.796875 -9.3125 21.351562 -10.71875 23.96875 C -12.125 26.59375 -12.828125 29.101562 -12.828125 31.5 C -12.671875 34.9375 -11.710938 37.003906 -9.953125 37.703125 C -8.191406 38.398438 -5.976562 37.96875 -3.3125 36.40625 C -0.644531 34.851562 2.117188 32.335938 4.984375 28.859375 C 7.859375 25.378906 10.476562 21.148438 12.84375 16.171875 C 15.21875 11.203125 16.976562 5.675781 18.125 -0.40625 Z M 18.125 -0.40625 "/></g></g></g><g fill="#462009" fill-opacity="1"><g transform="translate(270.946046, 231.427367)"><g><path d="M 38.828125 -17.625 C 38.203125 -15.707031 36.957031 -13.507812 35.09375 -11.03125 C 33.226562 -8.550781 30.898438 -6.957031 28.109375 -6.25 C 25.316406 -5.539062 22.898438 -5.632812 20.859375 -6.53125 C 18.828125 -7.4375 17.707031 -9.859375 17.5 -13.796875 C 15.1875 -9.304688 12.984375 -6.429688 10.890625 -5.171875 C 8.796875 -3.921875 6.617188 -3.441406 4.359375 -3.734375 C 1.796875 -4.148438 0.0625 -5.144531 -0.84375 -6.71875 C -1.75 -8.300781 -2.050781 -10.128906 -1.75 -12.203125 C -1.445312 -14.273438 -0.816406 -16.257812 0.140625 -18.15625 C 0.890625 -19.570312 1.929688 -20.882812 3.265625 -22.09375 C 4.609375 -23.3125 6.015625 -24.265625 7.484375 -24.953125 C 9.285156 -25.867188 11.101562 -26.300781 12.9375 -26.25 C 14.769531 -26.207031 16.726562 -25.601562 18.8125 -24.4375 C 18.851562 -24.382812 18.875 -24.429688 18.875 -24.578125 C 18.875 -24.773438 18.925781 -25.03125 19.03125 -25.34375 C 19.132812 -25.65625 19.3125 -25.898438 19.5625 -26.078125 C 20.25 -26.578125 21.0625 -26.828125 22 -26.828125 C 22.9375 -26.828125 23.65625 -26.359375 24.15625 -25.421875 C 24.25 -24.210938 24.125 -22.671875 23.78125 -20.796875 C 23.03125 -16.679688 23.03125 -13.71875 23.78125 -11.90625 C 24.539062 -10.101562 25.875 -9.265625 27.78125 -9.390625 C 29.6875 -9.515625 32.160156 -11.398438 35.203125 -15.046875 C 38.242188 -18.691406 39.453125 -19.550781 38.828125 -17.625 Z M 5.046875 -7.96875 C 6.097656 -7.207031 7.300781 -7.304688 8.65625 -8.265625 C 10.019531 -9.234375 11.332031 -10.597656 12.59375 -12.359375 C 13.851562 -14.117188 14.910156 -15.878906 15.765625 -17.640625 C 16.628906 -19.398438 17.101562 -20.703125 17.1875 -21.546875 C 14.625 -22.921875 12.425781 -23.15625 10.59375 -22.25 C 8.769531 -21.351562 7.3125 -19.878906 6.21875 -17.828125 C 5.132812 -15.773438 4.488281 -13.78125 4.28125 -11.84375 C 4.082031 -9.914062 4.335938 -8.625 5.046875 -7.96875 Z M 5.046875 -7.96875 "/></g></g></g><g fill="#462009" fill-opacity="1"><g transform="translate(307.317391, 231.427367)"><g><path d="M 28.375 -13.21875 C 30.132812 -16.007812 31.179688 -17.78125 31.515625 -18.53125 C 31.847656 -19.28125 32.109375 -19.242188 32.296875 -18.421875 C 32.492188 -17.597656 31.929688 -15.738281 30.609375 -12.84375 C 29.285156 -9.957031 27.640625 -7.726562 25.671875 -6.15625 C 23.703125 -4.59375 21.863281 -4.015625 20.15625 -4.421875 C 18.457031 -4.835938 17.238281 -6.019531 16.5 -7.96875 C 15.769531 -9.925781 15.554688 -12.394531 15.859375 -15.375 C 15.859375 -15.414062 15.878906 -15.539062 15.921875 -15.75 C 15.960938 -16.25 16.046875 -16.988281 16.171875 -17.96875 C 16.304688 -18.957031 16.398438 -19.976562 16.453125 -21.03125 C 16.515625 -22.082031 16.476562 -22.953125 16.34375 -23.640625 C 16.21875 -24.328125 15.90625 -24.566406 15.40625 -24.359375 C 14.195312 -23.703125 13.015625 -22.40625 11.859375 -20.46875 C 10.703125 -18.539062 9.65625 -16.515625 8.71875 -14.390625 C 7.78125 -12.273438 7.113281 -10.566406 6.71875 -9.265625 C 6.5625 -8.847656 6.414062 -8.414062 6.28125 -7.96875 C 6.070312 -7.363281 5.84375 -6.765625 5.59375 -6.171875 C 4.925781 -4.460938 3.769531 -3.800781 2.125 -4.1875 C 1.207031 -4.394531 0.671875 -4.957031 0.515625 -5.875 C 0.472656 -6.582031 0.453125 -7.253906 0.453125 -7.890625 C 0.453125 -8.304688 0.425781 -8.6875 0.375 -9.03125 C 0.28125 -14.101562 0.15625 -19.210938 0 -24.359375 C 0.0390625 -24.953125 0.300781 -25.363281 0.78125 -25.59375 C 1.269531 -25.820312 1.84375 -25.9375 2.5 -25.9375 C 3.007812 -25.9375 3.484375 -25.800781 3.921875 -25.53125 C 4.367188 -25.257812 4.648438 -24.6875 4.765625 -23.8125 C 4.816406 -23.519531 4.84375 -23.222656 4.84375 -22.921875 C 4.882812 -22.765625 4.90625 -22.617188 4.90625 -22.484375 C 5 -21.765625 5.046875 -21.15625 5.046875 -20.65625 C 5.046875 -19.90625 5.097656 -19.390625 5.203125 -19.109375 C 5.304688 -18.835938 5.519531 -18.847656 5.84375 -19.140625 C 6.175781 -19.441406 6.722656 -20.15625 7.484375 -21.28125 C 8.785156 -23.289062 10.394531 -24.992188 12.3125 -26.390625 C 14.082031 -27.648438 16.019531 -28.175781 18.125 -27.96875 C 19.925781 -27.78125 21.132812 -26.832031 21.75 -25.125 C 22.007812 -24.25 22.140625 -23.367188 22.140625 -22.484375 C 22.140625 -21.609375 22.082031 -20.722656 21.96875 -19.828125 C 21.914062 -18.921875 21.84375 -17.984375 21.75 -17.015625 C 21.6875 -16.722656 21.628906 -16.425781 21.578125 -16.125 C 21.285156 -12.851562 21.390625 -10.660156 21.890625 -9.546875 C 22.398438 -8.441406 23.164062 -8.078125 24.1875 -8.453125 C 25.21875 -8.835938 26.613281 -10.425781 28.375 -13.21875 Z M 28.375 -13.21875 "/></g></g></g><g fill="#462009" fill-opacity="1"><g transform="translate(257.745967, 277.661192)"><g><path d="M 16.65625 0 L 12.9375 0 L 12.9375 -7.609375 L 5.953125 -7.609375 L 5.953125 0 L 2.21875 0 L 2.21875 -17.625 L 5.953125 -17.625 L 5.953125 -10.71875 L 12.9375 -10.71875 L 12.9375 -17.625 L 16.65625 -17.625 Z M 16.65625 0 "/></g></g></g><g fill="#462009" fill-opacity="1"><g transform="translate(282.362728, 277.661192)"><g><path d="M 10.484375 0 L 9.78125 -1.828125 L 9.6875 -1.828125 C 9.0625 -1.046875 8.421875 -0.503906 7.765625 -0.203125 C 7.109375 0.0859375 6.253906 0.234375 5.203125 0.234375 C 3.910156 0.234375 2.890625 -0.132812 2.140625 -0.875 C 1.398438 -1.613281 1.03125 -2.664062 1.03125 -4.03125 C 1.03125 -5.457031 1.53125 -6.507812 2.53125 -7.1875 C 3.53125 -7.863281 5.039062 -8.238281 7.0625 -8.3125 L 9.40625 -8.390625 L 9.40625 -8.984375 C 9.40625 -10.347656 8.707031 -11.03125 7.3125 -11.03125 C 6.226562 -11.03125 4.960938 -10.703125 3.515625 -10.046875 L 2.296875 -12.53125 C 3.835938 -13.34375 5.554688 -13.75 7.453125 -13.75 C 9.253906 -13.75 10.640625 -13.351562 11.609375 -12.5625 C 12.578125 -11.78125 13.0625 -10.585938 13.0625 -8.984375 L 13.0625 0 Z M 9.40625 -6.25 L 7.984375 -6.203125 C 6.910156 -6.160156 6.113281 -5.960938 5.59375 -5.609375 C 5.070312 -5.265625 4.8125 -4.726562 4.8125 -4 C 4.8125 -2.96875 5.40625 -2.453125 6.59375 -2.453125 C 7.445312 -2.453125 8.128906 -2.695312 8.640625 -3.1875 C 9.148438 -3.675781 9.40625 -4.328125 9.40625 -5.140625 Z M 9.40625 -6.25 "/></g></g></g><g fill="#462009" fill-opacity="1"><g transform="translate(303.002127, 277.661192)"><g><path d="M 5.609375 0 L 1.921875 0 L 1.921875 -18.75 L 5.609375 -18.75 Z M 5.609375 0 "/></g></g></g><g fill="#462009" fill-opacity="1"><g transform="translate(316.265325, 277.661192)"><g><path d="M 10.484375 0 L 9.78125 -1.828125 L 9.6875 -1.828125 C 9.0625 -1.046875 8.421875 -0.503906 7.765625 -0.203125 C 7.109375 0.0859375 6.253906 0.234375 5.203125 0.234375 C 3.910156 0.234375 2.890625 -0.132812 2.140625 -0.875 C 1.398438 -1.613281 1.03125 -2.664062 1.03125 -4.03125 C 1.03125 -5.457031 1.53125 -6.507812 2.53125 -7.1875 C 3.53125 -7.863281 5.039062 -8.238281 7.0625 -8.3125 L 9.40625 -8.390625 L 9.40625 -8.984375 C 9.40625 -10.347656 8.707031 -11.03125 7.3125 -11.03125 C 6.226562 -11.03125 4.960938 -10.703125 3.515625 -10.046875 L 2.296875 -12.53125 C 3.835938 -13.34375 5.554688 -13.75 7.453125 -13.75 C 9.253906 -13.75 10.640625 -13.351562 11.609375 -12.5625 C 12.578125 -11.78125 13.0625 -10.585938 13.0625 -8.984375 L 13.0625 0 Z M 9.40625 -6.25 L 7.984375 -6.203125 C 6.910156 -6.160156 6.113281 -5.960938 5.59375 -5.609375 C 5.070312 -5.265625 4.8125 -4.726562 4.8125 -4 C 4.8125 -2.96875 5.40625 -2.453125 6.59375 -2.453125 C 7.445312 -2.453125 8.128906 -2.695312 8.640625 -3.1875 C 9.148438 -3.675781 9.40625 -4.328125 9.40625 -5.140625 Z M 9.40625 -6.25 "/></g></g></g><g fill="#462009" fill-opacity="1"><g transform="translate(336.904724, 277.661192)"><g><path d="M 5.609375 0 L 1.921875 0 L 1.921875 -18.75 L 5.609375 -18.75 Z M 5.609375 0 "/></g></g></g></svg>